<svg width="17" height="58" viewBox="0 0 17 58" fill="none" xmlns="http://www.w3.org/2000/svg">
<path d="M11.3414 0.795135H5.75395C6.3235 1.12935 6.81431 1.57823 7.199 2.10972H11.3414C11.5309 2.10972 11.6854 2.26415 11.6854 2.45373V8.74035C11.6854 8.92998 11.5309 9.08447 11.3414 9.08447H5.0547C4.8651 9.08447 4.71063 8.92998 4.71063 8.74035V4.55183C4.55187 4.47017 4.38585 4.40129 4.21423 4.34816C4.11366 4.65803 3.89538 4.92205 3.59501 5.07994C3.53205 5.11292 3.46364 5.13299 3.39603 5.15485V8.74038C3.39603 9.65486 4.14016 10.3991 5.05467 10.3991H11.3413C12.2558 10.3991 13 9.65486 13 8.74038V2.45373C13 1.53927 12.2559 0.795135 11.3414 0.795135Z" fill="#B0B0B0"/>
<path d="M3.39898 3.33529C4.75341 3.36779 5.93795 4.08029 6.61918 5.14927C6.68164 5.24686 6.78866 5.30331 6.8999 5.30331C6.93024 5.30331 6.96106 5.29904 6.99104 5.29051C7.13267 5.24981 7.23111 5.12145 7.23282 4.97426C7.23282 4.96098 7.23282 4.94765 7.23282 4.93448C7.23282 2.79695 5.52452 1.06173 3.39948 1.01079V0.389453C3.39948 0.244788 3.31946 0.112556 3.19194 0.0449643C3.13504 0.0149618 3.07254 0 3.01048 0C2.93303 0 2.85643 0.0231802 2.79053 0.0680654L0.15149 1.87433C0.0569521 1.93897 0.0004768 2.04594 2.66041e-06 2.1606C-0.000445139 2.27487 0.0556614 2.38234 0.149805 2.44777L2.78839 4.27719C2.85472 4.32337 2.93219 4.34649 3.01003 4.34649C3.07206 4.34649 3.13373 4.33193 3.19065 4.30235C3.31853 4.2352 3.39898 4.10215 3.39898 3.95749V3.33529Z" fill="#B0B0B0"/>
<path d="M11 57.2773H3.89062L3.89063 55.1777C3.89063 54.5495 4.0306 53.9928 4.31055 53.5078C4.59049 53.0195 4.98763 52.6419 5.50195 52.375C6.01628 52.1081 6.60547 51.9746 7.26953 51.9746H7.62598C8.2998 51.9746 8.89225 52.1097 9.40332 52.3799C9.91439 52.6468 10.3083 53.0293 10.585 53.5273C10.8617 54.0221 11 54.5902 11 55.2314V57.2773ZM4.88672 56.042H10.0137V55.2363C10.0137 54.5885 9.81185 54.0921 9.4082 53.7471C9.0013 53.3988 8.41862 53.2214 7.66016 53.2148H7.26465C6.49316 53.2148 5.90397 53.3825 5.49707 53.7178C5.09017 54.0531 4.88672 54.5397 4.88672 55.1777L4.88672 56.042ZM7.82617 46.5889V49.5088H10.0137L10.0137 46.0957H11L11 50.7441H3.89063L3.89063 46.1299H4.88672L4.88672 49.5088H6.84961V46.5889H7.82617ZM7.9873 40.9932L7.9873 43.8545H11V45.0898H3.89063L3.89063 40.5732H4.88672L4.88672 43.8545H7.00098L7.00098 40.9932H7.9873ZM9.34473 36.5498V39.3037L11 39.8799V41.1641L3.89063 38.4785V37.3701L11 34.6797L11 35.9688L9.34473 36.5498ZM8.34863 38.957V36.8965L5.39941 37.9268L8.34863 38.957ZM3.89063 28.7568H8.6416C9.39681 28.7568 9.99577 28.9993 10.4385 29.4844C10.8779 29.9661 11.0977 30.609 11.0977 31.4131C11.0977 32.2269 10.8812 32.873 10.4482 33.3516C10.012 33.8301 9.4082 34.0693 8.63672 34.0693H3.89063L3.89063 32.8389H8.64648C9.12174 32.8389 9.4847 32.7184 9.73535 32.4775C9.986 32.2367 10.1113 31.8818 10.1113 31.4131C10.1113 30.4626 9.61003 29.9873 8.60742 29.9873H3.89063L3.89063 28.7568ZM10.0137 26.1982V22.9707H11V27.4336L3.89063 27.4336L3.89063 26.1982L10.0137 26.1982ZM4.88672 17.8926V20.1094H11V21.335H4.88672L4.88672 23.5322H3.89063L3.89063 17.8926H4.88672Z" fill="#B0B0B0"/>
</svg>
